# xmcd CD database file
#
# Track frame offsets:
#	150
#	11179
#	31647
#	44115
#	72846
#	93401
#	109425
#	127338
#	145608
#	160386
#	174607
#	199889
#	222849
#
# Disc length: 3077 seconds
#
# Revision: 0
# Processed by: cddbd v1.4PL0 Copyright (c) Steve Scherf et al.
# Submitted via: Feurio! 1.63 - http://www.feurio.com
#
DISCID=c50c030d
DTITLE=Derek and the Dominos - Unreleased 2nd Album - Substance vol 1
DYEAR=1971
DGENRE=blues
TTITLE0=Chocolate
TTITLE1=It's hard to find
TTITLE2=Till I see you again
TTITLE3=Instrumental
TTITLE4=Evil
TTITLE5=Snake Lake blues
TTITLE6=I've been all day
TTITLE7=Mean old Frisco
TTITLE8=One more chance
TTITLE9=High
TTITLE10=Got to get better in a little while
TTITLE11=Moody jam
TTITLE12=Jim's song
EXTD=
EXTT0=
EXTT1=
EXTT2=
EXTT3=
EXTT4=
EXTT5=
EXTT6=
EXTT7=
EXTT8=
EXTT9=
EXTT10=
EXTT11=
EXTT12=
PLAYORDER=
